<svg xmlns="http://www.w3.org/2000/svg" viewBox="0 0 64 64">
  <rect width="64" height="64" fill="#0a0a0a"/>
  <g transform="translate(19.541 4.000) scale(0.07512)">
    <g transform="translate(-339.181065,766.795779) scale(0.100000,-0.100000)" fill="#fafafa">
      <path d="M3920 7654 c-181 -39 -323 -180 -397 -394 -16 -47 -38 -135 -49 -195
-26 -141 -26 -425 0 -550 41 -200 117 -344 224 -424 110 -82 282 -118 410 -86
142 36 297 175 376 339 137 281 153 770 35 1056 -52 127 -160 230 -283 271
-82 27 -228 33 -316 12 -53 -13 -32 -16 38 -6 88 13 81 24 -10 16 -71 -7 -82
-5 -120 14 -34 17 -39 18 -28 4 16 -19 36 -50 22 -34 -5 5 -29 18 -56 28 -54
21 -135 23 -213 5 -29 -7 -57 -10 -62 -8 -5 1 -9 0 -8 -2 9 -16 -23 -65 -41
-65 -45 0 -129 -65 -178 -136 -178 -257 -154 -626 51 -784 87 -68 196 -85 318
-50 26 8 86 18 134 23 49 5 90 11 91 13 9 9 75 35 119 47 91 24 178 14 304
-35 76 -29 132 -64 196 -123 75 -68 110 -119 158 -227 56 -125 73 -210 73
-359 0 -190 -39 -322 -130 -445 -50 -68 -160 -167 -208 -187 -42 -19 -130 -41
-204 -52 -82 -12 -208 0 -281 26 -171 61 -287 187 -344 374 -28 91 -45 270
-37 384 12 167 76 332 169 437 49 56 137 122 200 152 27 12 47 25 45 27 -1 2
-31 -6 -65 -16 -149 -47 -262 -147 -331 -291 -64 -134 -86 -228 -86 -371 -1
-273 102 -496 286 -622 113 -77 252 -111 411 -101z"/>
      <path d="M2735 6929 c-89 -13 -222 -50 -312 -88 -212 -90 -413 -244 -551 -422
-153 -198 -255 -441 -322 -769 -118 -581 -50 -1133 196 -1583 110 -201 286
-411 426 -510 26 -19 49 -38 53 -44 9 -16 188 -147 240 -176 27 -15 47 -28 43
-30 -3 -1 -75 35 -159 81 -213 116 -350 215 -494 358 -253 252 -403 511 -481
829 -16 67 -34 137 -39 156 -7 25 -10 -18 -10 -156 -1 -218 14 -340 67 -541
71 -271 220 -540 411 -742 222 -235 469 -382 781 -464 124 -33 188 -41 360
-49 158 -7 287 7 442 47 254 67 487 195 692 380 100 91 156 152 281 309 156
195 233 327 308 525 60 159 90 277 116 466 19 142 16 426 -6 591 -19 137 -22
146 -98 313 -150 332 -262 583 -358 805 -228 526 -278 766 -228 1090 19 119
68 257 122 339 49 76 152 174 226 217 32 19 56 36 53 39 -3 3 -25 -8 -49 -25
-44 -29 -147 -127 -201 -191 -163 -190 -266 -513 -266 -832 0 -302 60 -534
246 -955 13 -29 21 -54 19 -56 -1 -2 -17 32 -34 75 -64 153 -147 327 -245 514
-78 148 -114 226 -156 332 -54 138 -126 367 -109 350 5 -5 23 -49 39 -100 36
-110 88 -242 96 -242 17 0 137 -242 200 -403 22 -56 49 -126 60 -156 33 -91
74 -262 100 -416 25 -147 39 -437 31 -610 -16 -316 -118 -594 -331 -905 -136
-200 -317 -362 -524 -469 -156 -81 -310 -123 -510 -141 -129 -12 -288 -3 -395
22 -82 19 -207 60 -279 92 -57 25 -148 73 -201 106 -67 41 -73 47 -55 53 11 4
-3 6 -32 5 -45 -2 -53 1 -64 22 -8 14 -8 22 -2 18 6 -4 7 -1 1 8 -7 11 -10 11
-14 1 -2 -7 -9 -14 -16 -14 -7 0 -3 9 9 19 17 14 19 19 8 24 -23 9 -42 7 -34
-4 4 -7 -1 -7 -16 1 -12 7 -29 17 -36 23 -8 7 -16 11 -19 11 -3 -1 -23 14 -45
33 -22 18 -47 33 -55 33 -22 0 -213 188 -239 234 -10 19 -23 35 -28 34 -10 -1
-58 73 -52 79 1 2 13 -10 25 -27 13 -16 25 -27 28 -24 9 9 -49 86 -65 86 -8 0
-25 18 -39 39 -22 33 -23 36 -5 23 11 -8 4 0 -15 17 -36 32 -107 137 -136 200
-9 19 -25 53 -36 75 -76 158 -150 437 -185 696 -22 161 -25 519 -5 658 67 480
192 763 421 957 27 22 51 47 54 56 4 9 13 18 21 21 7 3 39 24 70 47 32 23 86
57 121 75 70 36 252 100 332 116 99 21 360 18 467 -4 113 -24 251 -68 254 -83
1 -4 24 -18 50 -30 47 -22 196 -127 196 -139 0 -3 -28 16 -62 42 -116 87 -245
153 -383 196 -123 39 -206 51 -355 51 -255 1 -425 -45 -609 -163 -149 -94
-251 -213 -329 -380 -134 -286 -179 -666 -126 -1085 47 -369 156 -695 332
-995 33 -55 64 -111 70 -125 22 -55 99 -179 102 -167 2 7 5 0 6 -16 1 -25 8
-32 50 -52 27 -13 70 -36 96 -53 40 -25 51 -36 73 -78 7 -14 33 -41 58 -60
112 -89 312 -222 405 -270 165 -85 405 -156 568 -169 87 -7 250 8 364 33 187
41 348 110 510 219 75 50 95 60 130 70 8 2 24 6 35 11 24 8 78 -7 70 -20 -8
-13 5 -22 22 -16 9 4 13 -1 12 -14 -1 -10 3 -19 8 -19 13 0 2 88 -16 130 -16
35 -76 100 -94 100 -32 -1 -36 17 -7 33 14 8 33 23 41 32 21 25 24 113 6 156
-22 53 -65 105 -119 144 -50 36 -50 49 0 31 76 -29 152 24 152 105 0 50 -28
105 -77 152 l-43 41 39 7 c139 26 158 175 33 269 -25 19 -27 24 -17 41 7 10
22 19 36 19 13 0 33 8 45 18 17 14 19 23 14 50 -8 38 -53 91 -127 149 -29 23
-53 45 -53 51 0 5 19 17 43 26 35 14 42 21 45 47 1 18 -3 41 -10 53 -16 25
-86 86 -100 86 -6 0 -4 8 5 18 13 14 13 22 4 41 -32 67 -71 99 -126 105 l-44
4 13 36 c19 56 -2 105 -55 130 -30 14 -34 19 -19 23 27 7 7 89 -41 167 -36 60
-104 121 -160 144 -34 13 -101 -3 -103 -25 -1 -10 -3 -8 -8 5 -8 21 -23 30
-122 71 -86 36 -201 53 -315 47 -42 -1 -77 -1 -77 1 0 9 152 99 218 130 41 19
77 36 80 39 12 11 -33 16 -88 9z"/>
    </g>
  </g>
</svg>
