<svg xmlns="http://www.w3.org/2000/svg" viewBox="0 0 64 64">
  <rect width="64" height="64" fill="#0a0a0a"/>
  <g fill="#fafafa">
    <path d="M32 14
             C 24 14 19 20 19 28
             C 19 34 21 38 22 42
             C 23 46 24 50 26 52
             C 28 54 30 54 32 54
             C 34 54 36 54 38 52
             C 40 50 41 46 42 42
             C 43 38 45 34 45 28
             C 45 20 40 14 32 14 Z"/>
    <ellipse cx="24" cy="14" rx="3.2" ry="3.6"/>
    <ellipse cx="30" cy="11" rx="2.4" ry="2.8"/>
    <ellipse cx="35" cy="10" rx="2.0" ry="2.4"/>
    <ellipse cx="39" cy="11" rx="1.7" ry="2.0"/>
    <ellipse cx="42" cy="13" rx="1.4" ry="1.7"/>
  </g>
</svg>
